<svg xmlns="http://www.w3.org/2000/svg" viewBox="0 0 1152.2 92.8"><g id="a444a77f-f00f-41c1-8d86-436e52571b7b" data-name="Capa 2"><g id="b8aeb71f-f614-4e9b-ae1f-9c7c049df28b" data-name="Capa 1"><path d="M56.3,35.5H94.7V15a15,15,0,0,0-15-15H56.3Z"/><path d="M94.4,44.9H46.9V0H0V44.4l3.8-3.8L14.9,29.5V42.8l-4.5,4.5L0,57.7V77.8a15,15,0,0,0,15,15H33.1L60.8,65.1l-33.4-.7-.9-46.5,9.4-9.4.7,46.7,46.5.9L46.4,92.8H94.7V44.9Z"/><path d="M128.6,1.3h18.3l32.7,32.8L212.3,1.3h18.3v90H212.3V26.6L179.6,58.1,146.9,26.6V91.3H128.6Z"/><path d="M250.9,69.9A19.1,19.1,0,0,1,253,61a20.2,20.2,0,0,1,6.4-7A34.5,34.5,0,0,1,270,49.5,65.8,65.8,0,0,1,284.9,48a103.4,103.4,0,0,1,13.2.9,112.5,112.5,0,0,1,14.3,2.8,13.4,13.4,0,0,0-2-6,14.7,14.7,0,0,0-4.6-4.7,27.2,27.2,0,0,0-7.1-3.1,39.3,39.3,0,0,0-9.5-1.1c-1.9,0-4.1.2-6.4.4s-4.6.6-7.1,1-4.9,1.1-7.3,1.8a44.1,44.1,0,0,0-6.7,2.4l-5.2-14c2.6-.9,5.3-1.7,8.3-2.5s5.9-1.4,9-2,6.1-1,9.2-1.3,6.1-.4,8.9-.4c12.8,0,22.2,3.2,28.4,9.7s9.3,16.4,9.3,29.8V91.3H312.5V85a62.7,62.7,0,0,1-5.8,2.9,53.9,53.9,0,0,1-6.8,2.4c-2.5.7-5.1,1.2-7.9,1.7a64.8,64.8,0,0,1-9,.6,49.5,49.5,0,0,1-14-1.8A28.2,28.2,0,0,1,259,86a20.5,20.5,0,0,1-6.1-7.1A19.8,19.8,0,0,1,250.9,69.9Zm17.9-.6a5.9,5.9,0,0,0,.9,3.2,6.7,6.7,0,0,0,2.8,2.7,14.2,14.2,0,0,0,4.8,1.9,29.8,29.8,0,0,0,7.2.8,49.4,49.4,0,0,0,8.7-.8,55.1,55.1,0,0,0,7.8-2.2,40.7,40.7,0,0,0,6.6-3,29.7,29.7,0,0,0,4.9-3.6v-3l-7.7-1.8-7.4-1.2-6.5-.6-5.4-.2a45,45,0,0,0-8,.6,21.6,21.6,0,0,0-5.1,1.7,7.7,7.7,0,0,0-2.8,2.5A6.7,6.7,0,0,0,268.8,69.3Z"/><path d="M354.8,70.5A52.1,52.1,0,0,0,370,76.6a73.9,73.9,0,0,0,17,2,53,53,0,0,0,9.8-.8,28.9,28.9,0,0,0,6.3-2.1,8,8,0,0,0,3.3-2.9,6,6,0,0,0,1-3.3,5.1,5.1,0,0,0-2.1-4.1q-2.1-1.8-6.9-1.8l-4.9.3-5.4.6-6,.6c-2,.2-4.1.3-6.2.3a40.3,40.3,0,0,1-11.8-1.5,21.1,21.1,0,0,1-7.9-4.1,15,15,0,0,1-4.5-6.1,21.3,21.3,0,0,1-1.3-7.6,19.5,19.5,0,0,1,2.4-9.6,23.6,23.6,0,0,1,6.9-7.6,35.4,35.4,0,0,1,10.9-5,55.8,55.8,0,0,1,14.2-1.7,84.5,84.5,0,0,1,8.5.4l8.8,1.3,8.3,1.9a64,64,0,0,1,7,2.3l-5.3,13.2a95.1,95.1,0,0,0-13-3.8,65.5,65.5,0,0,0-13.4-1.4,38.1,38.1,0,0,0-8.1.7,18,18,0,0,0-5.3,1.9,9.3,9.3,0,0,0-3.1,2.7,6.2,6.2,0,0,0-.9,3.2,4,4,0,0,0,.5,2.2,3.7,3.7,0,0,0,1.6,1.7,7,7,0,0,0,2.9,1.1,19.2,19.2,0,0,0,4.5.4l5.1-.3,5.7-.6,6-.6c2.1-.2,4.3-.3,6.5-.3a37.3,37.3,0,0,1,10.6,1.4,20.4,20.4,0,0,1,7.6,4.1,15.9,15.9,0,0,1,4.5,6.1,19.1,19.1,0,0,1,1.5,7.6,20.3,20.3,0,0,1-2.5,10,23,23,0,0,1-7.3,8,41.6,41.6,0,0,1-12.2,5.3,70.9,70.9,0,0,1-16.9,1.9,82.3,82.3,0,0,1-11.3-.8,80.1,80.1,0,0,1-10.4-1.9,74.3,74.3,0,0,1-9.4-2.9,64.5,64.5,0,0,1-7.9-3.6Z"/><path d="M450.9,36.2H434.5V23.4h16.4V2.2h17V23.4h16.5V36.2H467.9V91.3h-17Z"/><path d="M496.3,57.1a31.6,31.6,0,0,1,2.8-13.2,33.8,33.8,0,0,1,8.1-11.1,40.9,40.9,0,0,1,13-7.8,50.6,50.6,0,0,1,17.5-2.8,48.9,48.9,0,0,1,17.6,2.9A39.3,39.3,0,0,1,568.5,33a36.2,36.2,0,0,1,8.4,12,37.4,37.4,0,0,1,2.9,14.7,16.2,16.2,0,0,1-.1,2.1,12.7,12.7,0,0,1-.1,2H515.3a15.9,15.9,0,0,0,3.5,5.6,24.5,24.5,0,0,0,6.2,4.4,32.6,32.6,0,0,0,8.5,2.8,50.6,50.6,0,0,0,10.7,1,58.1,58.1,0,0,0,11.7-1.2A89.9,89.9,0,0,0,567,73.3l5.8,13c-2.2,1-4.5,1.9-6.8,2.7a52.9,52.9,0,0,1-7.1,2q-3.7.8-7.8,1.2c-2.7.2-5.5.4-8.5.4a68,68,0,0,1-20.2-2.8A44.7,44.7,0,0,1,508,82.2,30.7,30.7,0,0,1,499.2,71,33.9,33.9,0,0,1,496.3,57.1Zm65.4-6.6a17.3,17.3,0,0,0-2.9-5.3A19.6,19.6,0,0,0,554,41a24.2,24.2,0,0,0-6.7-2.9,31,31,0,0,0-8.3-1,30.3,30.3,0,0,0-8.8,1.1,26.3,26.3,0,0,0-7,2.9,19.2,19.2,0,0,0-5,4.3,16.3,16.3,0,0,0-2.9,5.1Z"/><path d="M598.1,23.4h17v9.8a73.9,73.9,0,0,1,12-7.3,70.7,70.7,0,0,1,12.5-4.7l5,15.6a54.1,54.1,0,0,0-17.3,4.5,31.3,31.3,0,0,0-12.2,9.6V91.3h-17Z"/><path d="M653.9,45.8a43.6,43.6,0,0,1,3.7-18,41.2,41.2,0,0,1,10.5-14.4,51.1,51.1,0,0,1,16.8-9.7A68.1,68.1,0,0,1,707.4.2a85.1,85.1,0,0,1,20.2,2.2,67.1,67.1,0,0,1,17.1,6.8L736.2,23a27.2,27.2,0,0,0-5.4-2.7,42.5,42.5,0,0,0-6.6-2.1c-2.3-.5-4.7-1-7.2-1.3a59.5,59.5,0,0,0-7.3-.4,53.1,53.1,0,0,0-15.6,2.1,35.5,35.5,0,0,0-11.6,6.1,25.4,25.4,0,0,0-7.1,9.2,27.6,27.6,0,0,0-2.5,11.9A29,29,0,0,0,675.5,58a26.8,26.8,0,0,0,7.3,9.7A34.1,34.1,0,0,0,694.6,74a47.6,47.6,0,0,0,15.7,2.3,53.5,53.5,0,0,0,7.9-.6,45.4,45.4,0,0,0,7.5-1.6,42.3,42.3,0,0,0,7.1-2.4,36.9,36.9,0,0,0,6.3-3.1l8.4,13.9a64.3,64.3,0,0,1-17,7.4,76.5,76.5,0,0,1-20.6,2.7A75.5,75.5,0,0,1,685.5,89,49.9,49.9,0,0,1,668,79a39.4,39.4,0,0,1-10.5-14.8A47.2,47.2,0,0,1,653.9,45.8Z"/><path d="M762.3,46.1a45.6,45.6,0,0,1,3.8-18.7,42.2,42.2,0,0,1,10.5-14.5,47.7,47.7,0,0,1,16.3-9.5,68.2,68.2,0,0,1,41.9,0,47.7,47.7,0,0,1,16.3,9.5,42.2,42.2,0,0,1,10.5,14.5,45.6,45.6,0,0,1,3.8,18.7,46.4,46.4,0,0,1-3.8,18.8,43,43,0,0,1-10.5,14.7,47.9,47.9,0,0,1-16.3,9.6,66.2,66.2,0,0,1-41.9,0,47.9,47.9,0,0,1-16.3-9.6,43,43,0,0,1-10.5-14.7A46.4,46.4,0,0,1,762.3,46.1Zm18.3,0a29.7,29.7,0,0,0,2.5,12.5,29,29,0,0,0,7,9.6,32,32,0,0,0,10.5,6,41,41,0,0,0,26.5,0,32,32,0,0,0,10.5-6,30.5,30.5,0,0,0,7-9.6,31.3,31.3,0,0,0,2.5-12.5,30.6,30.6,0,0,0-2.5-12.5,28.6,28.6,0,0,0-7-9.4,29.9,29.9,0,0,0-10.5-5.8,42.9,42.9,0,0,0-26.5,0,29.9,29.9,0,0,0-10.5,5.8,27.3,27.3,0,0,0-7,9.4A29.1,29.1,0,0,0,780.6,46.1Z"/><path d="M885.5,1.3h18.3l56.1,29.4V1.3h18.3v90H959.9V50L903.8,20.8V91.3H885.5Z"/><path d="M1003.6,1.3h80.6v16h-62.3V40.9h52.9v15h-52.9V91.3h-18.3Z"/><path d="M1135.4,11.1h-31.8V1.3h48.6l-28.5,54.6h-12.6Z"/></g></g></svg>