<svg xmlns="http://www.w3.org/2000/svg" viewBox="0 0 1023.6 275.8"><g id="e3b7ed40-e8a8-4e17-95d8-86719bc27d6b" data-name="Capa 2"><g id="b8adf8d7-3496-44a8-919c-f5c447df9d22" data-name="Capa 1"><path d="M0,184.5H18.3L51,217.3l32.7-32.8H102v90.1H83.7V209.8L51,241.3,18.3,209.8v64.8H0Z"/><path d="M122.3,253.1a19.1,19.1,0,0,1,2.1-8.9,18.2,18.2,0,0,1,6.4-6.9,30.3,30.3,0,0,1,10.6-4.5,59.9,59.9,0,0,1,14.8-1.6,104.9,104.9,0,0,1,13.3.9,133.3,133.3,0,0,1,14.3,2.8,13.8,13.8,0,0,0-2-5.9,15,15,0,0,0-4.6-4.8,26.5,26.5,0,0,0-7.2-3.1,38.2,38.2,0,0,0-9.4-1l-6.4.3c-2.3.2-4.7.6-7.1,1s-4.9,1.1-7.3,1.8a58.4,58.4,0,0,0-6.7,2.4l-5.2-14c2.6-.9,5.3-1.7,8.3-2.5s5.9-1.4,9-2,6.1-1,9.2-1.3,6-.4,8.9-.4c12.7,0,22.2,3.2,28.4,9.7s9.3,16.4,9.3,29.8v29.7H183.9v-6.4a62.7,62.7,0,0,1-5.8,2.9,60.1,60.1,0,0,1-6.8,2.4,61.1,61.1,0,0,1-7.9,1.7,64.8,64.8,0,0,1-9,.6,49.1,49.1,0,0,1-14-1.8,29.9,29.9,0,0,1-10-4.7,21.8,21.8,0,0,1-6.1-7.2A19.5,19.5,0,0,1,122.3,253.1Zm17.9-.6a5.9,5.9,0,0,0,.9,3.2,7.5,7.5,0,0,0,2.8,2.8,18.4,18.4,0,0,0,4.8,1.9,36.5,36.5,0,0,0,7.2.7,49.4,49.4,0,0,0,8.7-.8,55.1,55.1,0,0,0,7.8-2.2,36.5,36.5,0,0,0,6.6-3,29.7,29.7,0,0,0,4.9-3.6v-3l-7.8-1.8-7.3-1.2-6.5-.6-5.4-.2a44.2,44.2,0,0,0-8,.6,21.6,21.6,0,0,0-5.1,1.7,7.9,7.9,0,0,0-2.8,2.6A6,6,0,0,0,140.2,252.5Z"/><path d="M226.2,253.7a52.1,52.1,0,0,0,15.2,6.1,73.9,73.9,0,0,0,17,2,53,53,0,0,0,9.8-.8,28.9,28.9,0,0,0,6.3-2.1,8.7,8.7,0,0,0,3.3-2.9,6,6,0,0,0,1-3.3,5.1,5.1,0,0,0-2.1-4.1c-1.4-1.2-3.7-1.8-7-1.8l-4.8.3-5.4.6c-1.9.2-3.9.5-6,.6s-4.1.3-6.2.3a40.3,40.3,0,0,1-11.8-1.5,20.3,20.3,0,0,1-7.9-4.1,15,15,0,0,1-4.5-6.1,21.4,21.4,0,0,1-1.4-7.6,19.6,19.6,0,0,1,2.5-9.6,23.6,23.6,0,0,1,6.9-7.6,35.9,35.9,0,0,1,10.8-5,57,57,0,0,1,14.2-1.7,63.8,63.8,0,0,1,8.6.5c3,.3,5.9.7,8.8,1.2l8.3,1.9a64,64,0,0,1,7,2.3l-5.3,13.2a111.7,111.7,0,0,0-13-3.8,66.2,66.2,0,0,0-13.4-1.4,37.5,37.5,0,0,0-8.1.7,19.9,19.9,0,0,0-5.4,1.9,9.9,9.9,0,0,0-3,2.7,6.5,6.5,0,0,0-.9,3.2,4,4,0,0,0,.5,2.2,3.7,3.7,0,0,0,1.6,1.7,7,7,0,0,0,2.9,1.1,19.2,19.2,0,0,0,4.5.4l5.1-.3,5.6-.6,6.1-.6c2.1-.2,4.3-.3,6.4-.3a37.5,37.5,0,0,1,10.7,1.4,20.4,20.4,0,0,1,7.6,4.1,15.9,15.9,0,0,1,4.5,6.1,19.1,19.1,0,0,1,1.5,7.6,20.3,20.3,0,0,1-2.5,10,23,23,0,0,1-7.3,8,41.6,41.6,0,0,1-12.2,5.3,70.9,70.9,0,0,1-16.9,1.9,101.6,101.6,0,0,1-21.8-2.7,78.1,78.1,0,0,1-9.3-2.9,64.5,64.5,0,0,1-7.9-3.6Z"/><path d="M322.3,219.4H305.9V206.6h16.4V185.4h17v21.2h16.5v12.8H339.3v55.2h-17Z"/><path d="M367.7,240.3a31.6,31.6,0,0,1,2.8-13.2,33.8,33.8,0,0,1,8.1-11.1,40.9,40.9,0,0,1,13-7.8,50.2,50.2,0,0,1,17.5-2.8,48.3,48.3,0,0,1,17.5,2.9,37.5,37.5,0,0,1,13.3,8,34.8,34.8,0,0,1,8.4,11.9,37.4,37.4,0,0,1,2.9,14.7,16.2,16.2,0,0,1-.1,2.1,12.7,12.7,0,0,1-.1,2H386.7a15.1,15.1,0,0,0,3.5,5.6,22.3,22.3,0,0,0,6.2,4.4,32.6,32.6,0,0,0,8.5,2.8,50.6,50.6,0,0,0,10.7,1,58.1,58.1,0,0,0,11.7-1.2,89.9,89.9,0,0,0,11.1-3.1l5.8,13c-2.2,1-4.5,1.9-6.8,2.7a52.9,52.9,0,0,1-7.1,2q-3.7.8-7.8,1.2c-2.7.2-5.6.4-8.6.4a67.8,67.8,0,0,1-20.1-2.8,44.6,44.6,0,0,1-14.4-7.5,31.8,31.8,0,0,1-8.8-11.3A33.9,33.9,0,0,1,367.7,240.3Zm65.4-6.6a17.3,17.3,0,0,0-2.9-5.3,19.6,19.6,0,0,0-4.8-4.2,24.2,24.2,0,0,0-6.7-2.9,31,31,0,0,0-8.3-1,33.6,33.6,0,0,0-8.8,1.1,26.3,26.3,0,0,0-7,2.9,19.2,19.2,0,0,0-5,4.3,16.3,16.3,0,0,0-2.9,5.1Z"/><path d="M469.5,206.6h17v9.8a73.9,73.9,0,0,1,12-7.3,67.9,67.9,0,0,1,12.5-4.7l5,15.7a51.6,51.6,0,0,0-17.3,4.4,30.6,30.6,0,0,0-12.2,9.6v40.5h-17Z"/><path d="M525.3,229a45.2,45.2,0,0,1,3.6-18,42.7,42.7,0,0,1,10.6-14.4,49.2,49.2,0,0,1,16.8-9.7,68.1,68.1,0,0,1,22.5-3.5,91.3,91.3,0,0,1,20.2,2.2,65,65,0,0,1,17,6.8l-8.4,13.8a30.2,30.2,0,0,0-5.4-2.7,63.7,63.7,0,0,0-6.6-2.1c-2.3-.5-4.7-1-7.2-1.3a60.6,60.6,0,0,0-7.3-.4,52.6,52.6,0,0,0-15.6,2.1,34.5,34.5,0,0,0-11.6,6.1,26.2,26.2,0,0,0-7.1,9.2,27.6,27.6,0,0,0-2.5,11.9,29.8,29.8,0,0,0,2.6,12.3,26.2,26.2,0,0,0,7.3,9.6,34.1,34.1,0,0,0,11.8,6.3,47.6,47.6,0,0,0,15.7,2.3,51.2,51.2,0,0,0,7.8-.6,56.8,56.8,0,0,0,7.6-1.5,54.1,54.1,0,0,0,7.1-2.5,52.5,52.5,0,0,0,6.3-3l8.4,13.8a64.3,64.3,0,0,1-17,7.4,76.5,76.5,0,0,1-20.6,2.7,75.5,75.5,0,0,1-24.4-3.6,50.3,50.3,0,0,1-17.5-9.9,39.7,39.7,0,0,1-10.5-14.9A46.8,46.8,0,0,1,525.3,229Z"/><path d="M633.7,229.3a46,46,0,0,1,3.8-18.7A42.2,42.2,0,0,1,648,196.1a48.2,48.2,0,0,1,16.2-9.5,64.2,64.2,0,0,1,21-3.3,63.4,63.4,0,0,1,21,3.3,48.6,48.6,0,0,1,16.3,9.5A42.2,42.2,0,0,1,733,210.6a45.9,45.9,0,0,1,3.7,18.7,46.4,46.4,0,0,1-3.7,18.8,43,43,0,0,1-10.5,14.7,48.8,48.8,0,0,1-16.3,9.6,60.9,60.9,0,0,1-21,3.4,61.7,61.7,0,0,1-21-3.4,48.4,48.4,0,0,1-16.2-9.6,43,43,0,0,1-10.5-14.7A46.4,46.4,0,0,1,633.7,229.3Zm18.3,0a29.7,29.7,0,0,0,2.5,12.5,28,28,0,0,0,7,9.6,32,32,0,0,0,10.5,6,41,41,0,0,0,26.5,0,32,32,0,0,0,10.5-6,27.8,27.8,0,0,0,6.9-9.6,29.7,29.7,0,0,0,2.6-12.5,29.4,29.4,0,0,0-2.6-12.5,27,27,0,0,0-6.9-9.4,31.5,31.5,0,0,0-10.5-5.8,42.9,42.9,0,0,0-26.5,0,31.5,31.5,0,0,0-10.5,5.8,27.3,27.3,0,0,0-7,9.4A29.4,29.4,0,0,0,652,229.3Z"/><path d="M756.9,184.5h18.3l56.1,29.4V184.5h18.2v90.1H831.3V233.2L775.2,204v70.6H756.9Z"/><path d="M875,184.5h80.6v16H893.3v23.6h52.9v15H893.3v35.5H875Z"/><path d="M1006.8,194.3H975v-9.8h48.6l-28.5,54.6H982.5Z"/><path d="M523.4,46h49.8V19.4A19.4,19.4,0,0,0,553.7,0H523.4Z"/><path d="M572.7,58.1H511.1V0H450.4V57.6l4.9-4.9,14.4-14.5V55.5l-5.8,5.8L450.4,74.8v26a19.4,19.4,0,0,0,19.4,19.4h23.5l36-35.9-43.4-.8-1.1-60.3L497,11l.8,60.5,60.4,1.2-47.6,47.5h62.6V58.1Z"/></g></g></svg>