<svg width="0" height="0" class="hidden">
  <symbol xmlns="http://www.w3.org/2000/svg" viewBox="0 0 1152.2 92.8" id="Logo_LongVersion">
    <path d="M56.3 35.5h38.4V15a15 15 0 00-15-15H56.3z"></path>
    <path d="M94.4 44.9H46.9V0H0v44.4l3.8-3.8 11.1-11.1v13.3l-4.5 4.5L0 57.7v20.1a15 15 0 0015 15h18.1l27.7-27.7-33.4-.7-.9-46.5 9.4-9.4.7 46.7 46.5.9-36.7 36.7h48.3V44.9zm34.2-43.6h18.3l32.7 32.8 32.7-32.8h18.3v90h-18.3V26.6l-32.7 31.5-32.7-31.5v64.7h-18.3zm122.3 68.6A19.1 19.1 0 01253 61a20.2 20.2 0 016.4-7 34.5 34.5 0 0110.6-4.5 65.8 65.8 0 0114.9-1.5 103.4 103.4 0 0113.2.9 112.5 112.5 0 0114.3 2.8 13.4 13.4 0 00-2-6 14.7 14.7 0 00-4.6-4.7 27.2 27.2 0 00-7.1-3.1 39.3 39.3 0 00-9.5-1.1c-1.9 0-4.1.2-6.4.4s-4.6.6-7.1 1-4.9 1.1-7.3 1.8a44.1 44.1 0 00-6.7 2.4l-5.2-14c2.6-.9 5.3-1.7 8.3-2.5s5.9-1.4 9-2 6.1-1 9.2-1.3 6.1-.4 8.9-.4c12.8 0 22.2 3.2 28.4 9.7s9.3 16.4 9.3 29.8v29.6h-17.1V85a62.7 62.7 0 01-5.8 2.9 53.9 53.9 0 01-6.8 2.4c-2.5.7-5.1 1.2-7.9 1.7a64.8 64.8 0 01-9 .6 49.5 49.5 0 01-14-1.8 28.2 28.2 0 01-10-4.8 20.5 20.5 0 01-6.1-7.1 19.8 19.8 0 01-2-9zm17.9-.6a5.9 5.9 0 00.9 3.2 6.7 6.7 0 002.8 2.7 14.2 14.2 0 004.8 1.9 29.8 29.8 0 007.2.8 49.4 49.4 0 008.7-.8 55.1 55.1 0 007.8-2.2 40.7 40.7 0 006.6-3 29.7 29.7 0 004.9-3.6v-3l-7.7-1.8-7.4-1.2-6.5-.6-5.4-.2a45 45 0 00-8 .6 21.6 21.6 0 00-5.1 1.7 7.7 7.7 0 00-2.8 2.5 6.7 6.7 0 00-.8 3zm86 1.2a52.1 52.1 0 0015.2 6.1 73.9 73.9 0 0017 2 53 53 0 009.8-.8 28.9 28.9 0 006.3-2.1 8 8 0 003.3-2.9 6 6 0 001-3.3 5.1 5.1 0 00-2.1-4.1q-2.1-1.8-6.9-1.8l-4.9.3-5.4.6-6 .6c-2 .2-4.1.3-6.2.3a40.3 40.3 0 01-11.8-1.5 21.1 21.1 0 01-7.9-4.1 15 15 0 01-4.5-6.1 21.3 21.3 0 01-1.3-7.6 19.5 19.5 0 012.4-9.6 23.6 23.6 0 016.9-7.6 35.4 35.4 0 0110.9-5 55.8 55.8 0 0114.2-1.7 84.5 84.5 0 018.5.4l8.8 1.3 8.3 1.9a64 64 0 017 2.3l-5.3 13.2a95.1 95.1 0 00-13-3.8 65.5 65.5 0 00-13.4-1.4 38.1 38.1 0 00-8.1.7 18 18 0 00-5.3 1.9 9.3 9.3 0 00-3.1 2.7 6.2 6.2 0 00-.9 3.2 4 4 0 00.5 2.2 3.7 3.7 0 001.6 1.7 7 7 0 002.9 1.1 19.2 19.2 0 004.5.4l5.1-.3 5.7-.6 6-.6c2.1-.2 4.3-.3 6.5-.3a37.3 37.3 0 0110.6 1.4 20.4 20.4 0 017.6 4.1 15.9 15.9 0 014.5 6.1 19.1 19.1 0 011.5 7.6 20.3 20.3 0 01-2.5 10 23 23 0 01-7.3 8 41.6 41.6 0 01-12.2 5.3 70.9 70.9 0 01-16.9 1.9 82.3 82.3 0 01-11.3-.8 80.1 80.1 0 01-10.4-1.9 74.3 74.3 0 01-9.4-2.9 64.5 64.5 0 01-7.9-3.6zm96.1-34.3h-16.4V23.4h16.4V2.2h17v21.2h16.5v12.8h-16.5v55.1h-17zm45.4 20.9a31.6 31.6 0 012.8-13.2 33.8 33.8 0 018.1-11.1 40.9 40.9 0 0113-7.8 50.6 50.6 0 0117.5-2.8 48.9 48.9 0 0117.6 2.9 39.3 39.3 0 0113.2 7.9 36.2 36.2 0 018.4 12 37.4 37.4 0 012.9 14.7 16.2 16.2 0 01-.1 2.1 12.7 12.7 0 01-.1 2h-64.3a15.9 15.9 0 003.5 5.6 24.5 24.5 0 006.2 4.4 32.6 32.6 0 008.5 2.8 50.6 50.6 0 0010.7 1 58.1 58.1 0 0011.7-1.2 89.9 89.9 0 0011.1-3.1l5.8 13c-2.2 1-4.5 1.9-6.8 2.7a52.9 52.9 0 01-7.1 2q-3.7.8-7.8 1.2c-2.7.2-5.5.4-8.5.4a68 68 0 01-20.2-2.8 44.7 44.7 0 01-14.4-7.6 30.7 30.7 0 01-8.8-11.2 33.9 33.9 0 01-2.9-13.9zm65.4-6.6a17.3 17.3 0 00-2.9-5.3A19.6 19.6 0 00554 41a24.2 24.2 0 00-6.7-2.9 31 31 0 00-8.3-1 30.3 30.3 0 00-8.8 1.1 26.3 26.3 0 00-7 2.9 19.2 19.2 0 00-5 4.3 16.3 16.3 0 00-2.9 5.1zm36.4-27.1h17v9.8a73.9 73.9 0 0112-7.3 70.7 70.7 0 0112.5-4.7l5 15.6a54.1 54.1 0 00-17.3 4.5 31.3 31.3 0 00-12.2 9.6v40.4h-17zm55.8 22.4a43.6 43.6 0 013.7-18 41.2 41.2 0 0110.5-14.4 51.1 51.1 0 0116.8-9.7A68.1 68.1 0 01707.4.2a85.1 85.1 0 0120.2 2.2 67.1 67.1 0 0117.1 6.8L736.2 23a27.2 27.2 0 00-5.4-2.7 42.5 42.5 0 00-6.6-2.1c-2.3-.5-4.7-1-7.2-1.3a59.5 59.5 0 00-7.3-.4 53.1 53.1 0 00-15.6 2.1 35.5 35.5 0 00-11.6 6.1 25.4 25.4 0 00-7.1 9.2 27.6 27.6 0 00-2.5 11.9 29 29 0 002.6 12.2 26.8 26.8 0 007.3 9.7 34.1 34.1 0 0011.8 6.3 47.6 47.6 0 0015.7 2.3 53.5 53.5 0 007.9-.6 45.4 45.4 0 007.5-1.6 42.3 42.3 0 007.1-2.4 36.9 36.9 0 006.3-3.1l8.4 13.9a64.3 64.3 0 01-17 7.4 76.5 76.5 0 01-20.6 2.7 75.5 75.5 0 01-24.4-3.6A49.9 49.9 0 01668 79a39.4 39.4 0 01-10.5-14.8 47.2 47.2 0 01-3.6-18.4zm108.4.3a45.6 45.6 0 013.8-18.7 42.2 42.2 0 0110.5-14.5 47.7 47.7 0 0116.3-9.5 68.2 68.2 0 0141.9 0 47.7 47.7 0 0116.3 9.5 42.2 42.2 0 0110.5 14.5 45.6 45.6 0 013.8 18.7 46.4 46.4 0 01-3.8 18.8 43 43 0 01-10.5 14.7 47.9 47.9 0 01-16.3 9.6 66.2 66.2 0 01-41.9 0 47.9 47.9 0 01-16.3-9.6 43 43 0 01-10.5-14.7 46.4 46.4 0 01-3.8-18.8zm18.3 0a29.7 29.7 0 002.5 12.5 29 29 0 007 9.6 32 32 0 0010.5 6 41 41 0 0026.5 0 32 32 0 0010.5-6 30.5 30.5 0 007-9.6 31.3 31.3 0 002.5-12.5 30.6 30.6 0 00-2.5-12.5 28.6 28.6 0 00-7-9.4 29.9 29.9 0 00-10.5-5.8 42.9 42.9 0 00-26.5 0 29.9 29.9 0 00-10.5 5.8 27.3 27.3 0 00-7 9.4 29.1 29.1 0 00-2.5 12.5zM885.5 1.3h18.3l56.1 29.4V1.3h18.3v90h-18.3V50l-56.1-29.2v70.5h-18.3zm118.1 0h80.6v16h-62.3v23.6h52.9v15h-52.9v35.4h-18.3zm131.8 9.8h-31.8V1.3h48.6l-28.5 54.6h-12.6z"></path>
  </symbol>
</svg>