<svg width="0" height="0" class="hidden">
  <symbol fill="none" xmlns="http://www.w3.org/2000/svg" viewBox="0 0 578 156" id="Logo_LongVersionTall">
    <g fill="#FCFCFC">
      <path d="M0 103.689h10.334l18.464 18.434 18.465-18.434h10.334v50.58H47.263v-36.417l-18.465 17.759-18.464-17.703v36.418H0v-50.637zm69.06 38.554c0-1.855.395-3.485 1.185-5.002.791-1.518 2.033-2.81 3.614-3.878s3.614-1.911 5.986-2.529c2.371-.618 5.195-.899 8.357-.899 2.372 0 4.856.168 7.454.506 2.597.337 5.308.899 8.075 1.573-.113-1.236-.452-2.304-1.13-3.372-.621-1.011-1.524-1.911-2.597-2.641a13.695 13.695 0 00-4.01-1.742c-1.524-.394-3.331-.619-5.364-.619a41.71 41.71 0 00-3.557.169c-1.299.112-2.654.337-4.01.562-1.411.281-2.766.562-4.122.955-1.355.394-2.597.843-3.783 1.405l-2.936-7.868c1.468-.505 2.993-1.011 4.687-1.405 1.637-.449 3.331-.787 5.082-1.124a54.85 54.85 0 015.195-.73c1.75-.169 3.388-.281 5.025-.281 7.172 0 12.536 1.798 15.98 5.451 3.501 3.653 5.252 9.217 5.252 16.748v16.635h-9.656v-3.597c-1.016.562-2.089 1.124-3.275 1.63a34.14 34.14 0 01-3.84 1.349c-1.412.393-2.88.674-4.46.899a36.122 36.122 0 01-5.083.337c-2.993 0-5.647-.337-7.905-.955-2.259-.675-4.179-1.518-5.704-2.698-1.524-1.124-2.653-2.473-3.444-4.046-.79-1.574-1.016-2.979-1.016-4.833zm10.107-.338c0 .619.17 1.237.508 1.799.34.562.847 1.068 1.582 1.517.734.45 1.637.787 2.766 1.068 1.13.281 2.485.393 4.066.393 1.694 0 3.332-.168 4.913-.449a25.251 25.251 0 004.404-1.18c1.355-.506 2.598-1.068 3.727-1.743 1.129-.674 2.033-1.292 2.767-2.023v-1.686a68.905 68.905 0 00-4.348-1.011 69.892 69.892 0 00-4.122-.675 46.039 46.039 0 00-3.727-.337c-1.186-.056-2.202-.112-3.05-.112-1.806 0-3.274.112-4.517.337-1.242.225-2.145.562-2.88.955-.734.394-1.242.843-1.58 1.405-.34.618-.509 1.18-.509 1.742zm48.562.675c2.598 1.573 5.478 2.697 8.583 3.428a41.9 41.9 0 009.6 1.124c2.202 0 4.065-.169 5.533-.45 1.469-.281 2.654-.674 3.558-1.18.903-.449 1.525-1.011 1.863-1.63.396-.618.565-1.236.565-1.854 0-.899-.395-1.686-1.186-2.304-.79-.675-2.089-.956-3.896-.956-.847 0-1.751.056-2.71.169-.96.112-1.977.225-3.05.337-1.073.112-2.202.225-3.331.337a36.61 36.61 0 01-3.558.169c-2.597 0-4.799-.281-6.663-.843-1.863-.562-3.331-1.349-4.461-2.304a8.659 8.659 0 01-2.484-3.429 11.932 11.932 0 01-.791-4.271 11.1 11.1 0 011.355-5.395c.904-1.686 2.203-3.035 3.897-4.271 1.694-1.237 3.726-2.136 6.154-2.81 2.372-.675 5.083-1.012 8.019-1.012 1.524 0 3.162.112 4.856.281 1.694.169 3.332.45 4.969.731 1.638.281 3.162.674 4.687 1.067 1.525.394 2.823.843 3.953 1.293l-3.05 7.475a51.687 51.687 0 00-7.34-2.136 37 37 0 00-7.51-.787c-1.807 0-3.332.113-4.574.394-1.243.281-2.259.618-3.05 1.068-.79.449-1.355.955-1.694 1.517-.338.562-.564 1.18-.564 1.798 0 .45.113.843.282 1.237.169.393.508.674.904.955.395.281.959.45 1.637.618.678.113 1.525.225 2.541.225.904 0 1.864-.056 2.88-.168 1.016-.113 2.089-.225 3.162-.338 1.129-.112 2.259-.224 3.445-.337a38.098 38.098 0 013.614-.168c2.315 0 4.291.281 6.042.786 1.75.506 3.162 1.293 4.291 2.248a9.408 9.408 0 012.541 3.429c.565 1.292.847 2.753.847 4.327 0 2.023-.452 3.878-1.412 5.62s-2.315 3.203-4.178 4.496c-1.864 1.236-4.122 2.248-6.889 2.979-2.767.73-5.929 1.067-9.543 1.067-2.202 0-4.348-.112-6.381-.393-2.033-.281-4.009-.618-5.873-1.124a44.381 44.381 0 01-5.251-1.63 36.39 36.39 0 01-4.461-2.023l4.122-7.362zm54.265-19.277h-9.26v-7.193h9.26v-11.859h9.656v11.859h9.261v7.193h-9.261v31.023h-9.656v-31.023zm25.637 11.746c0-2.585.508-5.058 1.581-7.418 1.073-2.361 2.597-4.44 4.573-6.239 1.977-1.798 4.461-3.259 7.341-4.327s6.212-1.63 9.882-1.63 6.946.562 9.882 1.63c2.936 1.068 5.421 2.585 7.51 4.496a20.672 20.672 0 014.743 6.688 21.353 21.353 0 011.638 8.261v1.18c0 .394-.057.787-.057 1.124h-36.308c.395 1.124 1.073 2.192 1.976 3.148.904.955 2.089 1.742 3.445 2.472a21.747 21.747 0 004.799 1.63c1.807.394 3.84.562 6.042.562a32.99 32.99 0 006.607-.674c2.202-.45 4.292-1.068 6.268-1.742l3.275 7.306a45.442 45.442 0 01-3.84 1.517c-1.298.45-2.654.787-4.009 1.124-1.412.281-2.88.506-4.404.674-1.525.169-3.163.225-4.857.225-4.291 0-8.074-.506-11.349-1.573-3.276-1.012-5.986-2.473-8.188-4.215-2.202-1.799-3.84-3.878-4.969-6.295-1.017-2.529-1.581-5.114-1.581-7.924zm36.929-3.709c-.339-1.068-.903-2.023-1.637-2.979a11.239 11.239 0 00-2.711-2.416 13.67 13.67 0 00-3.783-1.63c-1.412-.394-2.993-.562-4.743-.562-1.807 0-3.501.225-4.969.618a14.851 14.851 0 00-3.953 1.63 10.833 10.833 0 00-2.824 2.416c-.734.9-1.298 1.855-1.637 2.867h26.257v.056zm20.554-15.231h9.656v5.508a45.682 45.682 0 016.72-4.103c2.371-1.124 4.743-2.023 7.058-2.641l2.824 8.767c-3.727.394-6.946 1.18-9.769 2.473-2.824 1.293-5.082 3.091-6.833 5.452v22.704h-9.656v-38.16zm31.509 12.589c0-3.596.678-6.968 2.033-10.06a23.342 23.342 0 015.929-8.149c2.597-2.304 5.76-4.102 9.487-5.451 3.726-1.293 7.961-1.967 12.705-1.967 4.122 0 7.962.393 11.406 1.236 3.445.843 6.663 2.08 9.656 3.822l-4.743 7.756c-.904-.562-1.92-1.124-3.049-1.574-1.186-.45-2.372-.843-3.727-1.124-1.299-.337-2.654-.562-4.066-.731-1.412-.168-2.767-.281-4.122-.281-3.275 0-6.212.394-8.809 1.237-2.598.843-4.743 1.967-6.55 3.372-1.751 1.461-3.106 3.203-4.009 5.227-.904 2.023-1.356 4.215-1.356 6.631 0 2.529.452 4.777 1.412 6.913.96 2.079 2.315 3.878 4.122 5.451 1.807 1.518 4.009 2.698 6.663 3.541 2.598.843 5.591 1.292 8.866 1.292 1.524 0 2.992-.112 4.461-.337a36.454 36.454 0 004.291-.899 47.629 47.629 0 004.009-1.349c1.299-.506 2.485-1.124 3.558-1.742l4.743 7.756c-2.767 1.742-5.986 3.147-9.656 4.158-3.67 1.012-7.51 1.518-11.632 1.518-5.252 0-9.825-.675-13.778-2.023-3.953-1.349-7.228-3.204-9.882-5.564-2.654-2.361-4.63-5.171-5.986-8.374-1.298-3.147-1.976-6.575-1.976-10.285zm61.211.169c0-3.822.677-7.306 2.089-10.51 1.412-3.203 3.388-5.901 5.929-8.149 2.541-2.304 5.59-4.046 9.148-5.282 3.557-1.237 7.51-1.855 11.858-1.855 4.292 0 8.244.618 11.858 1.855 3.558 1.236 6.663 3.034 9.204 5.282a24.289 24.289 0 015.929 8.149c1.412 3.148 2.09 6.688 2.09 10.51s-.678 7.362-2.09 10.566c-1.411 3.203-3.388 5.957-5.929 8.261-2.541 2.304-5.59 4.103-9.204 5.395-3.614 1.293-7.51 1.911-11.858 1.911-4.348 0-8.301-.618-11.858-1.911-3.558-1.292-6.607-3.091-9.148-5.395-2.541-2.304-4.517-5.058-5.929-8.261-1.355-3.204-2.089-6.744-2.089-10.566zm10.333 0c0 2.585.452 4.946 1.412 7.081.96 2.08 2.259 3.878 3.953 5.339a18.188 18.188 0 005.929 3.428c2.315.787 4.8 1.181 7.453 1.181 2.711 0 5.196-.394 7.454-1.181 2.315-.786 4.292-1.91 5.929-3.428 1.694-1.461 2.993-3.259 3.953-5.339.96-2.079 1.412-4.44 1.412-7.081 0-2.585-.452-4.946-1.412-7.025-.96-2.08-2.259-3.822-3.953-5.283-1.694-1.461-3.67-2.529-5.929-3.26-2.258-.73-4.8-1.124-7.454-1.124-2.71 0-5.195.394-7.453 1.124-2.315.731-4.292 1.855-5.929 3.26-1.694 1.461-2.993 3.203-3.953 5.283-.96 2.079-1.412 4.384-1.412 7.025zm59.235-25.178h10.333l31.678 16.523v-16.523h10.334v50.58h-10.334v-23.21l-31.678-16.411v39.621h-10.333v-50.58zm66.688 0h45.456v8.992h-35.179v13.264h29.871v8.43h-29.871v19.894H494.09v-50.58zm74.423 5.508h-17.956v-5.508h27.386l-16.093 30.686h-7.115l13.778-25.178zM295.55 25.852l28.121-.056V10.903C323.671 4.889 318.758 0 312.716 0h-17.109l-.057 25.852z"></path>
      <path d="M323.389 32.652l-34.784.056L288.661 0h-34.388v32.371l10.898-10.846v9.666l-10.898 10.847V56.65c0 6.013 4.912 10.903 10.954 10.903h13.27l20.272-20.176-24.507-.45-.621-33.889 7.002-6.856.508 34.057 34.05.619-26.879 26.75h35.349v-35.63l-.282.674z"></path>
    </g>
  </symbol>
</svg>