<svg width="0" height="0" class="hidden">
  <symbol xmlns="http://www.w3.org/2000/svg" viewBox="0 0 512.001 512.001" id="calendar">
    <path d="M15.001 421h75v45c0 8.284 6.716 15 15 15h392c8.284 0 15-6.716 15-15V76c0-8.284-6.716-15-15-15h-75V46c0-8.284-6.716-15-15-15s-15 6.716-15 15v15h-76V46c0-8.284-6.716-15-15-15s-15 6.716-15 15v15h-75V46c0-8.284-6.716-15-15-15s-15 6.716-15 15v15h-76c-8.284 0-15 6.716-15 15v90c0 110.55-45.945 195.596-84.603 228.477A15.001 15.001 0 0015.001 421zm467 30h-362v-30h287c3.509 0 6.907-1.23 9.603-3.477 18.032-15.019 45.963-50.777 65.397-96.575zm-362-360h61v15c0 8.284 6.716 15 15 15s15-6.716 15-15V91h75v15c0 8.284 6.716 15 15 15s15-6.716 15-15V91h76v15c0 8.284 6.716 15 15 15s15-6.716 15-15V91h60v60h-362zm-.257 89.99h361.991c-3.38 95.155-39.901 170.023-80.616 210.01H49.12c46.133-58.781 68.149-135.318 70.624-210.01z"></path>
  </symbol>
</svg>