<svg width="0" height="0" class="hidden">
  <symbol xmlns="http://www.w3.org/2000/svg" viewBox="0 0 480 480" id="entradas">
    <path d="M472 307.999a8 8 0 008-8v-64a8 8 0 00-8-8H371.312l50.344-50.344a8 8 0 000-11.312l-43.712-43.712a8 8 0 00-11.312 0c-12.499 12.499-32.765 12.499-45.264 0-12.499-12.499-12.499-32.765 0-45.264a8 8 0 000-11.312l-35.712-35.712a8 8 0 00-11.312 0L76.688 227.999H8a8 8 0 00-8 8v64a8 8 0 008 8c17.673 0 32 14.327 32 32 0 17.673-14.327 32-32 32a8 8 0 00-8 8v64a8 8 0 008 8h464a8 8 0 008-8v-64a8 8 0 00-8-8c-17.673 0-32-14.327-32-32 0-17.673 14.327-32 32-32zM280 47.311l24.864 24.864c-15.411 21.57-10.418 51.549 11.152 66.96 16.691 11.926 39.117 11.926 55.808 0l32.864 32.864-56 56h-25.376l18.344-18.344a8 8 0 000-11.312l-88-88a8 8 0 00-11.312 0L124.688 227.999H99.312L280 47.311zm20.688 180.688H147.312L248 127.311l76.688 76.688-24 24zM424.62 347.955c3.392 20.178 19.202 35.988 39.38 39.38v48.664h-64v-32h-16v32H96v-8H80v8H16v-48.664c26.143-4.394 43.774-29.149 39.38-55.292-3.392-20.178-19.201-35.988-39.38-39.38v-48.664h64v24h16v-24h368v48.664c-26.143 4.394-43.774 29.15-39.38 55.292z"></path>
    <path d="M384 259.999h16v32h-16zm0 48h16v32h-16zm0 48h16v32h-16zm-304-72h16v32H80zm0 48h16v32H80zm0 48h16v32H80zm272-96c-8.837 0-16-7.163-16-16a8 8 0 00-8-8H152a8 8 0 00-8 8c0 8.837-7.163 16-16 16a8 8 0 00-8 8v96a8 8 0 008 8c8.837 0 16 7.163 16 16a8 8 0 008 8h176a8 8 0 008-8c0-8.837 7.163-16 16-16a8 8 0 008-8v-96a8 8 0 00-8-8zm-8 97.008a32.128 32.128 0 00-22.992 22.992H158.992A32.128 32.128 0 00136 381.007v-82.016a32.128 32.128 0 0022.992-22.992h162.016A32.128 32.128 0 00344 298.991v82.016z"></path>
  </symbol>
</svg>