<?xml version="1.0" encoding="iso-8859-1"?>
<!-- Generator: Adobe Illustrator 19.0.0, SVG Export Plug-In . SVG Version: 6.00 Build 0)  -->
<svg version="1.1" id="Capa_1" xmlns="http://www.w3.org/2000/svg" xmlns:xlink="http://www.w3.org/1999/xlink" x="0px" y="0px"
	 viewBox="0 0 480 480" style="enable-background:new 0 0 480 480;" xml:space="preserve">
<g>
	<g>
		<path d="M472,307.999c4.418,0,8-3.582,8-8v-64c0-4.418-3.582-8-8-8H371.312l50.344-50.344c3.123-3.124,3.123-8.188,0-11.312
			l-43.712-43.712c-3.124-3.123-8.188-3.123-11.312,0c-12.499,12.499-32.765,12.499-45.264,0c-12.499-12.499-12.499-32.765,0-45.264
			c3.123-3.124,3.123-8.188,0-11.312l-35.712-35.712c-3.124-3.123-8.188-3.123-11.312,0L76.688,227.999H8c-4.418,0-8,3.582-8,8v64
			c0,4.418,3.582,8,8,8c17.673,0,32,14.327,32,32c0,17.673-14.327,32-32,32c-4.418,0-8,3.582-8,8v64c0,4.418,3.582,8,8,8h464
			c4.418,0,8-3.582,8-8v-64c0-4.418-3.582-8-8-8c-17.673,0-32-14.327-32-32C440,322.326,454.327,307.999,472,307.999z M280,47.311
			l24.864,24.864c-15.411,21.57-10.418,51.549,11.152,66.96c16.691,11.926,39.117,11.926,55.808,0l32.864,32.864l-56,56h-25.376
			l18.344-18.344c3.123-3.124,3.123-8.188,0-11.312l-88-88c-3.124-3.123-8.188-3.123-11.312,0L124.688,227.999H99.312L280,47.311z
			 M300.688,227.999H147.312L248,127.311l76.688,76.688L300.688,227.999z M424.62,347.955c3.392,20.178,19.202,35.988,39.38,39.38
			v48.664h-64v-32h-16v32H96v-8H80v8H16v-48.664c26.143-4.394,43.774-29.149,39.38-55.292c-3.392-20.178-19.201-35.988-39.38-39.38
			v-48.664h64v24h16v-24h368v48.664C437.857,297.057,420.226,321.813,424.62,347.955z"/>
	</g>
</g>
<g>
	<g>
		<rect x="384" y="259.999" width="16" height="32"/>
	</g>
</g>
<g>
	<g>
		<rect x="384" y="307.999" width="16" height="32"/>
	</g>
</g>
<g>
	<g>
		<rect x="384" y="355.999" width="16" height="32"/>
	</g>
</g>
<g>
	<g>
		<rect x="80" y="283.999" width="16" height="32"/>
	</g>
</g>
<g>
	<g>
		<rect x="80" y="331.999" width="16" height="32"/>
	</g>
</g>
<g>
	<g>
		<rect x="80" y="379.999" width="16" height="32"/>
	</g>
</g>
<g>
	<g>
		<path d="M352,283.999c-8.837,0-16-7.163-16-16c0-4.418-3.582-8-8-8H152c-4.418,0-8,3.582-8,8c0,8.837-7.163,16-16,16
			c-4.418,0-8,3.582-8,8v96c0,4.418,3.582,8,8,8c8.837,0,16,7.163,16,16c0,4.418,3.582,8,8,8h176c4.418,0,8-3.582,8-8
			c0-8.837,7.163-16,16-16c4.418,0,8-3.582,8-8v-96C360,287.581,356.418,283.999,352,283.999z M344,381.007
			c-11.263,2.934-20.058,11.729-22.992,22.992H158.992c-2.934-11.263-11.729-20.058-22.992-22.992v-82.016
			c11.263-2.934,20.058-11.729,22.992-22.992h162.016c2.934,11.263,11.729,20.058,22.992,22.992V381.007z"/>
	</g>
</g>
<g>
</g>
<g>
</g>
<g>
</g>
<g>
</g>
<g>
</g>
<g>
</g>
<g>
</g>
<g>
</g>
<g>
</g>
<g>
</g>
<g>
</g>
<g>
</g>
<g>
</g>
<g>
</g>
<g>
</g>
</svg>
