<svg xmlns="http://www.w3.org/2000/svg" viewBox="0 0 2419 1991.8"><defs><style>.a1fcf1ea-ea08-4a7b-9349-dede28b22591{fill:#98c343;}.a58c3e6a-68f7-4909-a74e-308063cf4e65{fill:#83a533;}.aed8e16d-69cf-405d-b613-f5f7525a3325{fill:#f5f4f5;}.ebe43dfb-3866-4d24-8c32-9fb3542abbe3{fill:#e0e8ac;}.bb0113cc-7bfb-4db0-86ab-3739cbb5315f{fill:#c1d98c;}</style></defs><g id="a18a3cc0-f2e9-48ed-97c9-69efde2fbf40" data-name="Capa 2"><g id="b9591c86-cf40-48f9-94f7-72f660c62653" data-name="Capa 1"><rect class="a1fcf1ea-ea08-4a7b-9349-dede28b22591" x="1423" y="995.8" width="142.3" height="142.29"/><rect class="a58c3e6a-68f7-4909-a74e-308063cf4e65" x="1138.3" y="1707.2" width="142.3" height="142.29"/><rect class="a1fcf1ea-ea08-4a7b-9349-dede28b22591" x="1565.3" y="711.2" width="142.3" height="142.29"/><rect class="aed8e16d-69cf-405d-b613-f5f7525a3325" x="2276.6" y="284.6" width="142.3" height="142.29"/><rect class="a58c3e6a-68f7-4909-a74e-308063cf4e65" x="1849.7" y="142.3" width="142.3" height="142.29"/><rect class="a1fcf1ea-ea08-4a7b-9349-dede28b22591" x="1992" y="426.9" width="142.3" height="142.29"/><rect class="aed8e16d-69cf-405d-b613-f5f7525a3325" x="284.6" width="142.3" height="142.29"/><rect class="aed8e16d-69cf-405d-b613-f5f7525a3325" x="426.9" width="142.3" height="142.29"/><rect class="aed8e16d-69cf-405d-b613-f5f7525a3325" x="569.1" width="142.3" height="142.29"/><rect class="aed8e16d-69cf-405d-b613-f5f7525a3325" x="711.4" width="142.3" height="142.29"/><rect class="aed8e16d-69cf-405d-b613-f5f7525a3325" x="1565.2" width="142.3" height="142.29"/><rect class="aed8e16d-69cf-405d-b613-f5f7525a3325" x="1707.4" width="142.3" height="142.29"/><rect class="aed8e16d-69cf-405d-b613-f5f7525a3325" x="1849.7" width="142.3" height="142.29"/><rect class="aed8e16d-69cf-405d-b613-f5f7525a3325" x="1992" width="142.3" height="142.29"/><rect class="aed8e16d-69cf-405d-b613-f5f7525a3325" x="142.3" y="142.3" width="142.3" height="142.29"/><rect class="a1fcf1ea-ea08-4a7b-9349-dede28b22591" x="284.6" y="142.3" width="142.3" height="142.29"/><rect class="a1fcf1ea-ea08-4a7b-9349-dede28b22591" x="426.9" y="142.3" width="142.3" height="142.29"/><rect class="a1fcf1ea-ea08-4a7b-9349-dede28b22591" x="569.1" y="142.3" width="142.3" height="142.29"/><rect class="a1fcf1ea-ea08-4a7b-9349-dede28b22591" x="711.4" y="142.3" width="142.3" height="142.29"/><rect class="aed8e16d-69cf-405d-b613-f5f7525a3325" x="853.7" y="142.3" width="142.3" height="142.29"/><rect class="aed8e16d-69cf-405d-b613-f5f7525a3325" x="1422.9" y="142.3" width="142.3" height="142.29"/><rect class="a58c3e6a-68f7-4909-a74e-308063cf4e65" x="1565.2" y="142.3" width="142.3" height="142.29"/><rect class="a58c3e6a-68f7-4909-a74e-308063cf4e65" x="1707.4" y="142.3" width="142.3" height="142.29"/><rect class="a58c3e6a-68f7-4909-a74e-308063cf4e65" x="1992" y="142.3" width="142.3" height="142.29"/><rect class="aed8e16d-69cf-405d-b613-f5f7525a3325" x="2134.3" y="142.3" width="142.3" height="142.29"/><rect class="aed8e16d-69cf-405d-b613-f5f7525a3325" y="284.6" width="142.3" height="142.29"/><rect class="a1fcf1ea-ea08-4a7b-9349-dede28b22591" x="142.3" y="284.6" width="142.3" height="142.29"/><rect class="a1fcf1ea-ea08-4a7b-9349-dede28b22591" x="284.6" y="284.6" width="142.3" height="142.29"/><rect class="ebe43dfb-3866-4d24-8c32-9fb3542abbe3" x="426.9" y="284.6" width="142.3" height="142.29"/><rect class="bb0113cc-7bfb-4db0-86ab-3739cbb5315f" x="569.1" y="284.6" width="142.3" height="142.29"/><rect class="a1fcf1ea-ea08-4a7b-9349-dede28b22591" x="711.4" y="284.6" width="142.3" height="142.29"/><rect class="a1fcf1ea-ea08-4a7b-9349-dede28b22591" x="853.7" y="284.6" width="142.3" height="142.29"/><rect class="aed8e16d-69cf-405d-b613-f5f7525a3325" x="996" y="284.6" width="142.3" height="142.29"/><rect class="aed8e16d-69cf-405d-b613-f5f7525a3325" x="1280.6" y="284.6" width="142.3" height="142.29"/><rect class="a58c3e6a-68f7-4909-a74e-308063cf4e65" x="1422.9" y="284.6" width="142.3" height="142.29"/><rect class="a1fcf1ea-ea08-4a7b-9349-dede28b22591" x="1565.2" y="284.6" width="142.3" height="142.29"/><rect class="a1fcf1ea-ea08-4a7b-9349-dede28b22591" x="1707.4" y="284.6" width="142.3" height="142.29"/><rect class="a58c3e6a-68f7-4909-a74e-308063cf4e65" x="1992" y="284.6" width="142.3" height="142.29"/><rect class="a58c3e6a-68f7-4909-a74e-308063cf4e65" x="2134.3" y="284.6" width="142.3" height="142.29"/><rect class="aed8e16d-69cf-405d-b613-f5f7525a3325" y="426.9" width="142.3" height="142.29"/><rect class="a1fcf1ea-ea08-4a7b-9349-dede28b22591" x="142.3" y="426.9" width="142.3" height="142.29"/><rect class="ebe43dfb-3866-4d24-8c32-9fb3542abbe3" x="284.6" y="426.9" width="142.3" height="142.29"/><rect class="bb0113cc-7bfb-4db0-86ab-3739cbb5315f" x="426.9" y="426.9" width="142.3" height="142.29"/><rect class="a1fcf1ea-ea08-4a7b-9349-dede28b22591" x="569.1" y="426.9" width="142.3" height="142.29"/><rect class="a1fcf1ea-ea08-4a7b-9349-dede28b22591" x="711.4" y="426.9" width="142.3" height="142.29"/><rect class="a1fcf1ea-ea08-4a7b-9349-dede28b22591" x="853.7" y="426.9" width="142.3" height="142.29"/><rect class="a1fcf1ea-ea08-4a7b-9349-dede28b22591" x="996" y="426.9" width="142.3" height="142.29"/><rect class="a58c3e6a-68f7-4909-a74e-308063cf4e65" x="1280.6" y="426.9" width="142.3" height="142.29"/><rect class="a1fcf1ea-ea08-4a7b-9349-dede28b22591" x="1422.9" y="426.9" width="142.3" height="142.29"/><rect class="a1fcf1ea-ea08-4a7b-9349-dede28b22591" x="1565.2" y="426.9" width="142.3" height="142.29"/><rect class="a1fcf1ea-ea08-4a7b-9349-dede28b22591" x="1707.4" y="426.9" width="142.3" height="142.29"/><rect class="a1fcf1ea-ea08-4a7b-9349-dede28b22591" x="1849.7" y="426.9" width="142.3" height="142.29"/><rect class="a58c3e6a-68f7-4909-a74e-308063cf4e65" x="2134.3" y="426.9" width="142.3" height="142.29"/><rect class="aed8e16d-69cf-405d-b613-f5f7525a3325" x="2276.6" y="426.9" width="142.3" height="142.29"/><rect class="aed8e16d-69cf-405d-b613-f5f7525a3325" x="0.1" y="569" width="142.3" height="142.29"/><rect class="a1fcf1ea-ea08-4a7b-9349-dede28b22591" x="142.4" y="569" width="142.3" height="142.29"/><rect class="a1fcf1ea-ea08-4a7b-9349-dede28b22591" x="284.7" y="569" width="142.3" height="142.29"/><rect class="a1fcf1ea-ea08-4a7b-9349-dede28b22591" x="427" y="569" width="142.3" height="142.29"/><rect class="a1fcf1ea-ea08-4a7b-9349-dede28b22591" x="569.2" y="569" width="142.3" height="142.29"/><rect class="a1fcf1ea-ea08-4a7b-9349-dede28b22591" x="711.5" y="569" width="142.3" height="142.29"/><rect class="a1fcf1ea-ea08-4a7b-9349-dede28b22591" x="853.8" y="569" width="142.3" height="142.29"/><rect class="a1fcf1ea-ea08-4a7b-9349-dede28b22591" x="996.1" y="569" width="142.3" height="142.29"/><rect class="a58c3e6a-68f7-4909-a74e-308063cf4e65" x="1138.4" y="569" width="142.3" height="142.29"/><rect class="a1fcf1ea-ea08-4a7b-9349-dede28b22591" x="1280.7" y="569" width="142.3" height="142.29"/><rect class="a1fcf1ea-ea08-4a7b-9349-dede28b22591" x="1423" y="569" width="142.3" height="142.29"/><rect class="a1fcf1ea-ea08-4a7b-9349-dede28b22591" x="1565.3" y="569" width="142.3" height="142.29"/><rect class="a1fcf1ea-ea08-4a7b-9349-dede28b22591" x="1707.5" y="569" width="142.3" height="142.29"/><rect class="a1fcf1ea-ea08-4a7b-9349-dede28b22591" x="1849.8" y="569" width="142.3" height="142.29"/><rect class="a1fcf1ea-ea08-4a7b-9349-dede28b22591" x="1992.1" y="569" width="142.3" height="142.29"/><rect class="a58c3e6a-68f7-4909-a74e-308063cf4e65" x="2134.4" y="569" width="142.3" height="142.29"/><rect class="aed8e16d-69cf-405d-b613-f5f7525a3325" x="2276.7" y="569" width="142.3" height="142.29"/><rect class="aed8e16d-69cf-405d-b613-f5f7525a3325" x="142.4" y="711.2" width="142.3" height="142.29"/><rect class="a1fcf1ea-ea08-4a7b-9349-dede28b22591" x="284.7" y="711.2" width="142.3" height="142.29"/><rect class="a1fcf1ea-ea08-4a7b-9349-dede28b22591" x="427" y="711.2" width="142.3" height="142.29"/><rect class="a1fcf1ea-ea08-4a7b-9349-dede28b22591" x="569.2" y="711.2" width="142.3" height="142.29"/><rect class="a1fcf1ea-ea08-4a7b-9349-dede28b22591" x="711.5" y="711.2" width="142.3" height="142.29"/><rect class="a1fcf1ea-ea08-4a7b-9349-dede28b22591" x="853.8" y="711.2" width="142.3" height="142.29"/><rect class="a1fcf1ea-ea08-4a7b-9349-dede28b22591" x="996.1" y="711.2" width="142.3" height="142.29"/><rect class="a1fcf1ea-ea08-4a7b-9349-dede28b22591" x="1138.4" y="711.2" width="142.3" height="142.29"/><rect class="a1fcf1ea-ea08-4a7b-9349-dede28b22591" x="1280.7" y="711.2" width="142.3" height="142.29"/><rect class="a1fcf1ea-ea08-4a7b-9349-dede28b22591" x="1423" y="711.2" width="142.3" height="142.29"/><rect class="a1fcf1ea-ea08-4a7b-9349-dede28b22591" x="1707.5" y="711.2" width="142.3" height="142.29"/><rect class="a1fcf1ea-ea08-4a7b-9349-dede28b22591" x="1849.8" y="711.2" width="142.3" height="142.29"/><rect class="a58c3e6a-68f7-4909-a74e-308063cf4e65" x="1992.1" y="711.2" width="142.3" height="142.29"/><rect class="aed8e16d-69cf-405d-b613-f5f7525a3325" x="2134.4" y="711.2" width="142.3" height="142.29"/><rect class="aed8e16d-69cf-405d-b613-f5f7525a3325" x="142.4" y="853.5" width="142.3" height="142.29"/><rect class="a1fcf1ea-ea08-4a7b-9349-dede28b22591" x="284.7" y="853.5" width="142.3" height="142.29"/><rect class="a1fcf1ea-ea08-4a7b-9349-dede28b22591" x="427" y="853.5" width="142.3" height="142.29"/><rect class="a1fcf1ea-ea08-4a7b-9349-dede28b22591" x="569.2" y="853.5" width="142.3" height="142.29"/><rect class="a1fcf1ea-ea08-4a7b-9349-dede28b22591" x="711.5" y="853.5" width="142.3" height="142.29"/><rect class="a1fcf1ea-ea08-4a7b-9349-dede28b22591" x="853.8" y="853.5" width="142.3" height="142.29"/><rect class="a1fcf1ea-ea08-4a7b-9349-dede28b22591" x="996.1" y="853.5" width="142.3" height="142.29"/><rect class="a1fcf1ea-ea08-4a7b-9349-dede28b22591" x="1138.4" y="853.5" width="142.3" height="142.29"/><rect class="a1fcf1ea-ea08-4a7b-9349-dede28b22591" x="1280.7" y="853.5" width="142.3" height="142.29"/><rect class="a1fcf1ea-ea08-4a7b-9349-dede28b22591" x="1423" y="853.5" width="142.3" height="142.29"/><rect class="a1fcf1ea-ea08-4a7b-9349-dede28b22591" x="1565.3" y="853.5" width="142.3" height="142.29"/><rect class="a1fcf1ea-ea08-4a7b-9349-dede28b22591" x="1707.5" y="853.5" width="142.3" height="142.29"/><rect class="a1fcf1ea-ea08-4a7b-9349-dede28b22591" x="1849.8" y="853.5" width="142.3" height="142.29"/><rect class="a58c3e6a-68f7-4909-a74e-308063cf4e65" x="1992.1" y="853.5" width="142.3" height="142.29"/><rect class="aed8e16d-69cf-405d-b613-f5f7525a3325" x="2134.4" y="853.5" width="142.3" height="142.29"/><rect class="aed8e16d-69cf-405d-b613-f5f7525a3325" x="284.7" y="995.8" width="142.3" height="142.29"/><rect class="a1fcf1ea-ea08-4a7b-9349-dede28b22591" x="427" y="995.8" width="142.3" height="142.29"/><rect class="a1fcf1ea-ea08-4a7b-9349-dede28b22591" x="569.2" y="995.8" width="142.3" height="142.29"/><rect class="a1fcf1ea-ea08-4a7b-9349-dede28b22591" x="711.5" y="995.8" width="142.3" height="142.29"/><rect class="a1fcf1ea-ea08-4a7b-9349-dede28b22591" x="853.8" y="995.8" width="142.3" height="142.29"/><rect class="a1fcf1ea-ea08-4a7b-9349-dede28b22591" x="996.1" y="995.8" width="142.3" height="142.29"/><rect class="a1fcf1ea-ea08-4a7b-9349-dede28b22591" x="1280.7" y="995.8" width="142.3" height="142.29"/><rect class="a1fcf1ea-ea08-4a7b-9349-dede28b22591" x="1565.3" y="995.8" width="142.3" height="142.29"/><rect class="a1fcf1ea-ea08-4a7b-9349-dede28b22591" x="1707.5" y="995.8" width="142.3" height="142.29"/><rect class="a58c3e6a-68f7-4909-a74e-308063cf4e65" x="1849.8" y="995.8" width="142.3" height="142.29"/><rect class="aed8e16d-69cf-405d-b613-f5f7525a3325" x="1992.1" y="995.8" width="142.3" height="142.29"/><rect class="aed8e16d-69cf-405d-b613-f5f7525a3325" x="426.8" y="1138.2" width="142.3" height="142.29"/><rect class="a1fcf1ea-ea08-4a7b-9349-dede28b22591" x="569.1" y="1138.2" width="142.3" height="142.29"/><rect class="a1fcf1ea-ea08-4a7b-9349-dede28b22591" x="711.3" y="1138.2" width="142.3" height="142.29"/><rect class="a1fcf1ea-ea08-4a7b-9349-dede28b22591" x="853.6" y="1138.2" width="142.3" height="142.29"/><rect class="a1fcf1ea-ea08-4a7b-9349-dede28b22591" x="995.9" y="1138.2" width="142.3" height="142.29"/><rect class="a1fcf1ea-ea08-4a7b-9349-dede28b22591" x="1138.2" y="1138.2" width="142.3" height="142.29"/><rect class="a1fcf1ea-ea08-4a7b-9349-dede28b22591" x="1280.5" y="1138.2" width="142.3" height="142.29"/><rect class="a1fcf1ea-ea08-4a7b-9349-dede28b22591" x="1422.8" y="1138.2" width="142.3" height="142.29"/><rect class="a1fcf1ea-ea08-4a7b-9349-dede28b22591" x="1565.1" y="1138.2" width="142.3" height="142.29"/><rect class="a58c3e6a-68f7-4909-a74e-308063cf4e65" x="1707.4" y="1138.2" width="142.3" height="142.29"/><rect class="aed8e16d-69cf-405d-b613-f5f7525a3325" x="1849.6" y="1138.2" width="142.3" height="142.29"/><rect class="aed8e16d-69cf-405d-b613-f5f7525a3325" x="569.1" y="1280.5" width="142.3" height="142.28"/><rect class="a1fcf1ea-ea08-4a7b-9349-dede28b22591" x="711.3" y="1280.5" width="142.3" height="142.28"/><rect class="a1fcf1ea-ea08-4a7b-9349-dede28b22591" x="853.6" y="1280.5" width="142.3" height="142.28"/><rect class="a1fcf1ea-ea08-4a7b-9349-dede28b22591" x="995.9" y="1280.5" width="142.3" height="142.28"/><rect class="a1fcf1ea-ea08-4a7b-9349-dede28b22591" x="1138.2" y="1280.5" width="142.3" height="142.28"/><rect class="a1fcf1ea-ea08-4a7b-9349-dede28b22591" x="1280.5" y="1280.5" width="142.3" height="142.28"/><rect class="a1fcf1ea-ea08-4a7b-9349-dede28b22591" x="1422.8" y="1280.5" width="142.3" height="142.28"/><rect class="a58c3e6a-68f7-4909-a74e-308063cf4e65" x="1565.1" y="1280.5" width="142.3" height="142.28"/><rect class="aed8e16d-69cf-405d-b613-f5f7525a3325" x="1707.4" y="1280.5" width="142.3" height="142.28"/><rect class="aed8e16d-69cf-405d-b613-f5f7525a3325" x="711.3" y="1422.8" width="142.3" height="142.29"/><rect class="a1fcf1ea-ea08-4a7b-9349-dede28b22591" x="853.6" y="1422.8" width="142.3" height="142.29"/><rect class="a1fcf1ea-ea08-4a7b-9349-dede28b22591" x="995.9" y="1422.8" width="142.3" height="142.29"/><rect class="a1fcf1ea-ea08-4a7b-9349-dede28b22591" x="1138.2" y="1422.8" width="142.3" height="142.29"/><rect class="a1fcf1ea-ea08-4a7b-9349-dede28b22591" x="1280.5" y="1422.8" width="142.3" height="142.29"/><rect class="a58c3e6a-68f7-4909-a74e-308063cf4e65" x="1422.8" y="1422.8" width="142.3" height="142.29"/><rect class="aed8e16d-69cf-405d-b613-f5f7525a3325" x="1565.1" y="1422.8" width="142.3" height="142.29"/><rect class="aed8e16d-69cf-405d-b613-f5f7525a3325" x="853.6" y="1565.1" width="142.3" height="142.29"/><rect class="a1fcf1ea-ea08-4a7b-9349-dede28b22591" x="995.9" y="1565.1" width="142.3" height="142.29"/><rect class="a1fcf1ea-ea08-4a7b-9349-dede28b22591" x="1138.2" y="1565.1" width="142.3" height="142.29"/><rect class="a58c3e6a-68f7-4909-a74e-308063cf4e65" x="1280.5" y="1565.1" width="142.3" height="142.29"/><rect class="aed8e16d-69cf-405d-b613-f5f7525a3325" x="1422.8" y="1565.1" width="142.3" height="142.29"/><rect class="aed8e16d-69cf-405d-b613-f5f7525a3325" x="996" y="1707.2" width="142.3" height="142.29"/><rect class="aed8e16d-69cf-405d-b613-f5f7525a3325" x="1280.6" y="1707.2" width="142.3" height="142.29"/><rect class="aed8e16d-69cf-405d-b613-f5f7525a3325" x="1138.3" y="1849.5" width="142.3" height="142.29"/><rect class="a1fcf1ea-ea08-4a7b-9349-dede28b22591" x="1849.7" y="284.6" width="142.3" height="142.29"/><rect class="aed8e16d-69cf-405d-b613-f5f7525a3325" x="1138.3" y="426.9" width="142.3" height="142.29"/><rect class="a1fcf1ea-ea08-4a7b-9349-dede28b22591" x="1138.4" y="995.8" width="142.3" height="142.29"/></g></g></svg>