<svg width="0" height="0" class="hidden">
  <symbol xmlns="http://www.w3.org/2000/svg" viewBox="0 0 128 128" id="hotel">
    <path d="M43.08 7.81a1.749 1.749 0 00-1.75 1.75v4.562h-2.984V9.56a1.75 1.75 0 00-3.5 0v12.625a1.75 1.75 0 003.5 0v-4.563h2.984v4.563a1.75 1.75 0 103.5 0V9.56a1.749 1.749 0 00-1.75-1.75zm12.081 0h-6.484a1.749 1.749 0 00-1.75 1.75v12.625a1.75 1.75 0 001.75 1.75h6.484a1.75 1.75 0 001.75-1.75V9.56a1.749 1.749 0 00-1.75-1.75zm-1.75 12.625h-2.984V11.31h2.984zM67.242 7.81h-6.484a1.75 1.75 0 100 3.5h1.492v10.875a1.75 1.75 0 103.5 0V11.31h1.492a1.75 1.75 0 000-3.5zm12.081 3.5a1.75 1.75 0 000-3.5h-6.484a1.749 1.749 0 00-1.75 1.75v12.625a1.75 1.75 0 001.75 1.75h6.484a1.75 1.75 0 000-3.5h-4.734v-2.813h4.734a1.75 1.75 0 000-3.5h-4.734V11.31zM91.4 20.435h-4.73V9.56a1.75 1.75 0 00-3.5 0v12.625a1.75 1.75 0 001.75 1.75h6.48a1.75 1.75 0 000-3.5z"></path>
    <path d="M110.125 28.247H101.5v-26.5A1.75 1.75 0 0099.75 0h-71.5a1.75 1.75 0 00-1.75 1.75v26.5h-8.625a1.749 1.749 0 00-1.75 1.75v96.25a1.75 1.75 0 001.75 1.75h92.25a1.75 1.75 0 001.75-1.75V30a1.749 1.749 0 00-1.75-1.753zM30 3.5h68v24.75H30zm48.437 101.125V124.5H65.75v-19.875zM62.25 124.5H49.562v-19.875H62.25zm46.125 0H81.937v-21.625a1.75 1.75 0 00-1.75-1.75H47.812a1.751 1.751 0 00-1.75 1.75V124.5H19.625V31.747h88.75z"></path>
    <path d="M46.25 38.247H27.875A1.749 1.749 0 0026.125 40v12.505a1.749 1.749 0 001.75 1.75H46.25a1.749 1.749 0 001.75-1.75V40a1.749 1.749 0 00-1.75-1.753zM44.5 50.755H29.625v-9.008H44.5zm28.687-12.508H54.812A1.75 1.75 0 0053.062 40v12.505a1.75 1.75 0 001.75 1.75h18.375a1.749 1.749 0 001.75-1.75V40a1.749 1.749 0 00-1.75-1.753zm-1.75 12.508H56.562v-9.008h14.875zM80 40v12.505a1.749 1.749 0 001.75 1.75h18.375a1.749 1.749 0 001.75-1.75V40a1.749 1.749 0 00-1.75-1.75H81.75A1.749 1.749 0 0080 40zm3.5 1.75h14.875v9.008H83.5zM46.25 58.427H27.875a1.75 1.75 0 00-1.75 1.75v12.509a1.75 1.75 0 001.75 1.75H46.25a1.75 1.75 0 001.75-1.75V60.177a1.75 1.75 0 00-1.75-1.75zM44.5 70.936H29.625v-9.009H44.5zm28.687-12.509H54.812a1.751 1.751 0 00-1.75 1.75v12.509a1.751 1.751 0 001.75 1.75h18.375a1.75 1.75 0 001.75-1.75V60.177a1.75 1.75 0 00-1.75-1.75zm-1.75 12.509H56.562v-9.009h14.875zm28.688-12.509H81.75a1.75 1.75 0 00-1.75 1.75v12.509a1.75 1.75 0 001.75 1.75h18.375a1.75 1.75 0 001.75-1.75V60.177a1.75 1.75 0 00-1.75-1.75zm-1.75 12.509H83.5v-9.009h14.875zM46.25 78.608H27.875a1.75 1.75 0 00-1.75 1.75v12.509a1.75 1.75 0 001.75 1.75H46.25a1.75 1.75 0 001.75-1.75V80.358a1.75 1.75 0 00-1.75-1.75zM44.5 91.117H29.625v-9.009H44.5zm28.687-12.509H54.812a1.751 1.751 0 00-1.75 1.75v12.509a1.751 1.751 0 001.75 1.75h18.375a1.75 1.75 0 001.75-1.75V80.358a1.75 1.75 0 00-1.75-1.75zm-1.75 12.509H56.562v-9.009h14.875zm28.688-12.509H81.75a1.75 1.75 0 00-1.75 1.75v12.509a1.75 1.75 0 001.75 1.75h18.375a1.75 1.75 0 001.75-1.75V80.358a1.75 1.75 0 00-1.75-1.75zm-1.75 12.509H83.5v-9.009h14.875z"></path>
  </symbol>
</svg>