<?xml version="1.0"?>
<svg xmlns="http://www.w3.org/2000/svg" width="512" height="512" viewBox="0 0 128 128"><g><path d="M43.08,7.81a1.749,1.749,0,0,0-1.75,1.75v4.562H38.346V9.56a1.75,1.75,0,0,0-3.5,0V22.185a1.75,1.75,0,0,0,3.5,0V17.622H41.33v4.563a1.75,1.75,0,1,0,3.5,0V9.56A1.749,1.749,0,0,0,43.08,7.81Z"/><path d="M55.161,7.81H48.677a1.749,1.749,0,0,0-1.75,1.75V22.185a1.75,1.75,0,0,0,1.75,1.75h6.484a1.75,1.75,0,0,0,1.75-1.75V9.56A1.749,1.749,0,0,0,55.161,7.81Zm-1.75,12.625H50.427V11.31h2.984Z"/><path d="M67.242,7.81H60.758a1.75,1.75,0,1,0,0,3.5H62.25V22.185a1.75,1.75,0,1,0,3.5,0V11.31h1.492a1.75,1.75,0,0,0,0-3.5Z"/><path d="M79.323,11.31a1.75,1.75,0,0,0,0-3.5H72.839a1.749,1.749,0,0,0-1.75,1.75V22.185a1.75,1.75,0,0,0,1.75,1.75h6.484a1.75,1.75,0,0,0,0-3.5H74.589V17.622h4.734a1.75,1.75,0,0,0,0-3.5H74.589V11.31Z"/><path d="M91.4,20.435H86.67V9.56a1.75,1.75,0,0,0-3.5,0V22.185a1.75,1.75,0,0,0,1.75,1.75H91.4a1.75,1.75,0,0,0,0-3.5Z"/><path d="M110.125,28.247H101.5V1.747A1.75,1.75,0,0,0,99.75,0H28.25a1.75,1.75,0,0,0-1.75,1.75v26.5H17.875A1.749,1.749,0,0,0,16.125,30v96.25a1.75,1.75,0,0,0,1.75,1.75H47.783c.01,0,.02,0,.029,0H80.187c.01,0,.02,0,.03,0h29.908a1.75,1.75,0,0,0,1.75-1.75V30A1.749,1.749,0,0,0,110.125,28.247ZM30,3.5H98v24.75H30ZM78.437,104.625V124.5H65.75V104.625ZM62.25,124.5H49.562V104.625H62.25Zm46.125,0H81.937V102.875a1.75,1.75,0,0,0-1.75-1.75H47.812a1.751,1.751,0,0,0-1.75,1.75V124.5H19.625V31.747h88.75Z"/><path d="M46.25,38.247H27.875A1.749,1.749,0,0,0,26.125,40V52.505a1.749,1.749,0,0,0,1.75,1.75H46.25A1.749,1.749,0,0,0,48,52.505V40A1.749,1.749,0,0,0,46.25,38.247ZM44.5,50.755H29.625V41.747H44.5Z"/><path d="M73.187,38.247H54.812A1.75,1.75,0,0,0,53.062,40V52.505a1.75,1.75,0,0,0,1.75,1.75H73.187a1.749,1.749,0,0,0,1.75-1.75V40A1.749,1.749,0,0,0,73.187,38.247Zm-1.75,12.508H56.562V41.747H71.437Z"/><path d="M80,40V52.505a1.749,1.749,0,0,0,1.75,1.75h18.375a1.749,1.749,0,0,0,1.75-1.75V40a1.749,1.749,0,0,0-1.75-1.75H81.75A1.749,1.749,0,0,0,80,40Zm3.5,1.75H98.375v9.008H83.5Z"/><path d="M46.25,58.427H27.875a1.75,1.75,0,0,0-1.75,1.75V72.686a1.75,1.75,0,0,0,1.75,1.75H46.25A1.75,1.75,0,0,0,48,72.686V60.177A1.75,1.75,0,0,0,46.25,58.427ZM44.5,70.936H29.625V61.927H44.5Z"/><path d="M73.187,58.427H54.812a1.751,1.751,0,0,0-1.75,1.75V72.686a1.751,1.751,0,0,0,1.75,1.75H73.187a1.75,1.75,0,0,0,1.75-1.75V60.177A1.75,1.75,0,0,0,73.187,58.427Zm-1.75,12.509H56.562V61.927H71.437Z"/><path d="M100.125,58.427H81.75A1.75,1.75,0,0,0,80,60.177V72.686a1.75,1.75,0,0,0,1.75,1.75h18.375a1.75,1.75,0,0,0,1.75-1.75V60.177A1.75,1.75,0,0,0,100.125,58.427Zm-1.75,12.509H83.5V61.927H98.375Z"/><path d="M46.25,78.608H27.875a1.75,1.75,0,0,0-1.75,1.75V92.867a1.75,1.75,0,0,0,1.75,1.75H46.25A1.75,1.75,0,0,0,48,92.867V80.358A1.75,1.75,0,0,0,46.25,78.608ZM44.5,91.117H29.625V82.108H44.5Z"/><path d="M73.187,78.608H54.812a1.751,1.751,0,0,0-1.75,1.75V92.867a1.751,1.751,0,0,0,1.75,1.75H73.187a1.75,1.75,0,0,0,1.75-1.75V80.358A1.75,1.75,0,0,0,73.187,78.608Zm-1.75,12.509H56.562V82.108H71.437Z"/><path d="M100.125,78.608H81.75A1.75,1.75,0,0,0,80,80.358V92.867a1.75,1.75,0,0,0,1.75,1.75h18.375a1.75,1.75,0,0,0,1.75-1.75V80.358A1.75,1.75,0,0,0,100.125,78.608Zm-1.75,12.509H83.5V82.108H98.375Z"/></g></svg>
