<svg width="0" height="0" class="hidden">
  <symbol xmlns="http://www.w3.org/2000/svg" viewBox="0 0 128 128" id="location">
    <path d="M78.777 37.021A14.777 14.777 0 1064 51.8a14.795 14.795 0 0014.777-14.779zm-26.054 0A11.277 11.277 0 1164 48.3a11.29 11.29 0 01-11.277-11.279z"></path>
    <path d="M123.328 121.069l-14.266-37.4a1.751 1.751 0 00-1.635-1.126h-27c.165-.269.329-.53.494-.8 10.389-17.2 15.617-32.246 15.542-44.714a32.464 32.464 0 00-64.928-.011c-.075 12.479 5.153 27.527 15.542 44.725.165.273.329.534.494.8h-27a1.751 1.751 0 00-1.635 1.126l-14.264 37.4a1.748 1.748 0 001.635 2.374h115.386a1.748 1.748 0 001.635-2.374zM35.036 37.021a28.964 28.964 0 1157.928.01C93.114 61.889 69.874 92.548 64 99.9c-5.874-7.349-29.115-38-28.964-62.879zM62.667 103.8a1.75 1.75 0 002.666 0 185.716 185.716 0 0012.9-17.759h27.987l2.24 5.875-54.691 19.451-19.494-25.329h15.49A185.716 185.716 0 0062.667 103.8zm-8.959 11.3h.01l32.627-11.6L99 119.943H40.1zm-31.93-29.062h8.08L50.3 112.6l-20.643 7.342H8.847zm81.643 33.905l-13.609-17.682 19.9-7.077 9.443 24.759z"></path>
  </symbol>
</svg>