<svg width="0" height="0" class="hidden">
  <symbol xmlns="http://www.w3.org/2000/svg" xmlns:xlink="http://www.w3.org/1999/xlink" viewBox="0 0 1559 496" id="logo-platzi">
    <title>platzi</title>
    <defs>
      <path d="M234.534.973c21.735-3.395 44.54 2.179 62 15.46 10.956 8.334 20.28 19.38 30 29.1l56 56c16.576 16.577 37.609 32.738 48.24 54 9.774 19.548 11.167 43.493 3.53 64-7.057 18.953-21.577 31.91-35.556 45.791l-1.214 1.21-81 81c-2.968 2.968-7.468 6.197-9.364 10-2.644 5.302 8.103 12.739 11.364 16l29 29c3.14 3.14 9.537 7.52 10.654 12 .807 3.238-2.678 5.977-4.66 8-5.274 5.387-10.662 10.668-15.994 16-22.546 22.546-43.59 50.343-77 55.56-21.735 3.396-44.54-2.178-62-15.46-10.956-8.333-20.28-19.38-30-29.1l-126-126c-18.662-18.662-37.29-35.656-41.561-63-3.395-21.735 2.179-44.54 15.46-62 9.165-12.05 21.41-22.31 32.1-33l113-113c21.49-21.49 41.225-46.598 73-51.561zm13 81.768c-3.812 0-7.575 5.369-10 7.793l-146 146c-2.617 2.617-8.793 6.899-8.793 11 0 4.1 6.176 8.383 8.793 11l146 146c2.425 2.424 6.188 7.793 10 7.793 5.125 0 11.662-9.455 15-12.793l40-40c-10.146-14.403-25.542-26.542-38-39-4.061-4.061-13.301-10.316-14.793-16-.933-3.553 3.639-6.837 5.793-9l103-103c-7.823-11.105-19.4-20.4-29-30l-73-73c-2.227-2.222-5.497-6.793-9-6.793z" id="a"></path>
    </defs>
    <g fill="none" fill-rule="evenodd">
      <mask id="b" fill="#fff">
        <use xlink:href="#a"></use>
      </mask>
      <use fill="#98CA3F" fill-rule="nonzero" xlink:href="#a"></use>
      <path d="M80.867 247.2c-.055.056-.111 1.112.334.667.055-.055.11-1.111-.334-.666z" fill="#80AA2B" fill-rule="nonzero" mask="url(#b)"></path>
      <path d="M248 81c5.494 7.799 13.263 14.263 20 21l35 35 35 35c6.737 6.737 13.201 14.506 21 20-5.494-7.799-13.263-14.263-20-21l-35-35-35-35c-6.737-6.737-13.201-14.506-21-20z" fill="#5A0" fill-rule="nonzero"></path>
      <path d="M841.073 102.054v199.095c0 17.343-3.97 49.345 16.004 57.545 3.371 1.382 7.382 2.038 11.003 2.3 5.461.394 11.633-.82 17.004-1.817l1 37.018c-24.436.504-52.853 7.868-72.847-11.306-20.986-20.13-18.175-57.263-18.175-83.74V102.054h46.011zm-200.184 0c30.429-.021 59.008-.344 85.156 18.045 56.114 39.462 53.843 135.736-5.001 171.582-23.24 14.157-48.989 15.423-75.336 15.47l-1.683.001h-52.013v87.042H542v-292.14zm7.137 43.02h-57.014v118.057h57.014c15.469 0 30.274.533 44.01-7.83 37.008-22.53 35.977-86.196-4-105.104-12.84-6.072-26.195-5.122-40.01-5.122zm877.215-43.555c9.672-1.745 20.965.858 27.477 8.632 13.593 16.227 3.77 41.82-16.474 45.464-3.701.667-7.332.39-11.003-.344-5.931-1.186-11.573-3.703-15.674-8.289-14.073-15.74-4.59-41.81 15.674-45.463z" fill="#FCFCFC" fill-rule="nonzero"></path>
      <path d="M422 142l1 1-1-1z" fill="olive" fill-rule="nonzero"></path>
      <path d="M1166.032 144v49.091H1125v37.07h41.032v78.145c0 23.251.18 47.65 14.912 67.125 18.844 24.92 53.601 27.661 82.163 22.237 6.025-1.144 12.12-2.23 18.014-3.913 2.182-.623 5.505-1.085 6.976-3.024 1.811-2.396.4-6.612.03-9.29-1.131-8.256-2.832-16.712-3.002-25.046-17.104 1.495-32.476 11.255-50.04 4.92-15.371-5.544-21.356-19.852-23.177-34.976-1.462-12.253-.841-24.73-.841-37.069v-59.11h70.054v-37.069h-70.054V144h-45.035z" fill="#FCFCFC" fill-rule="nonzero"></path>
      <path d="M435 166l1 1-1-1m2 7l1 1-1-1m1 5l1 1-1-1z" fill="olive" fill-rule="nonzero"></path>
      <path d="M1015.28 189c18.54.03 37.27 4.216 54.97 9.413 6.507 1.909 16.412 4.177 21.67 8.56 2.918 2.431 2.318 6.584 2.318 9.993V317.84c0 10.995-2.388 25.75 2.57 35.952 3.725 7.67 11.022 7.98 18.398 7.993h1.021v31.96c-18.41 2.328-45.466 6.256-55.691-13.982-3.838-7.592-1.99-15.22-4.278-22.971-3.728 12.656-15.022 23.107-25.986 29.759-30.415 18.449-72.833 13.852-99.949-8.402-14.812-12.159-24.257-31.01-28.855-49.322-9.515-37.847-4.887-82.014 24.148-110.438 23.967-23.474 57.39-29.44 89.663-29.389zm461.76 3.996c-.03 8.287-3.938 13.137-8.186 19.975-5.867 9.431-12.094 18.632-18.11 27.965-24.708 38.336-50.134 76.06-75.651 113.858h100.947v39.95h-167.912c0-18.264 16.151-34.924 25.566-49.937 17.581-28.068 35.692-55.752 54.672-82.897 7.216-10.313 13.883-21.1 21.709-30.962h-94.951v-37.952zm76.96.998v200.75h-45.976v-200.75H1554zm-556.711 33.387c-16.222 2.322-31.224 9.114-41.219 22.544-19.58 26.304-17.87 75.474 9.235 96.351 12.074 9.3 28.326 11.506 42.978 9.222 4.578-.715 8.905-2.34 12.993-4.484 29.616-15.508 29-53.408 28.985-82.24V244.93c0-2.792.7-6.923-1.03-9.34-2.458-3.441-9.135-4.31-12.963-5.267-12.443-3.11-26.186-4.774-38.98-2.943z" fill="#FCFCFC" fill-rule="nonzero"></path>
      <path d="M439 196l1 1-1-1z" fill="olive" fill-rule="nonzero"></path>
      <path d="M438 205l1 1-1-1m-1 5l1 1-1-1z" fill="#5A0" fill-rule="nonzero"></path>
      <path d="M427 234l1 1-1-1z" fill="olive" fill-rule="nonzero"></path>
      <path d="M425 237l1 1-1-1zM302 360l1 1-1-1m3 0l1 1-1-1m-4 1l1 1-1-1m5 0l1 1-1-1m-6 1l1 1-1-1m7 0l1 1-1-1m-8 1l1 1-1-1m9 0l1 1-1-1m-10 1l1 1-1-1m11 0l1 1-1-1m-12 1l1 1-1-1m13 0l1 1-1-1m-14 1l1 1-1-1m15 0l1 1-1-1m-16 1l1 1-1-1m17 0l1 1-1-1m-18 1l1 1-1-1m19 0l1 1-1-1m-20 1l1 1-1-1m21 0l1 1-1-1m-22 1l1 1-1-1m23 0l1 1-1-1m-24 1l1 1-1-1m25 0l1 1-1-1m-26 1l1 1-1-1m27 0l1 1-1-1m-28 1l1 1-1-1m29 0l1 1-1-1m-30 1l1 1-1-1m31 0l1 1-1-1m-32 1l1 1-1-1m33 0l1 1-1-1m-34 1l1 1-1-1m35 0l1 1-1-1m-36 1l1 1-1-1m37 0l1 1-1-1m-38 1l1 1-1-1m39 0l1 1-1-1m-40 1l1 1-1-1m41 0l1 1-1-1m-42 1l1 1-1-1m43 0l1 1-1-1m-44 1l1 1-1-1m45 0l1 1-1-1m-46 1l1 1-1-1m47 0l1 1-1-1m-48 1l1 1-1-1m49 0l1 1-1-1m-50 1l1 1-1-1m51 0l1 1-1-1m-52 1l1 1-1-1m53 0l1 1-1-1m-54 1l1 1-1-1m55 0l1 1-1-1m-56 1l1 1-1-1m57 0l1 1-1-1m-58 1l1 1-1-1m59 0l1 1-1-1m-60 1l1 1-1-1m61 0l1 1-1-1m-62 1l1 1-1-1m63 0l1 1-1-1m-64 1l1 1-1-1m65 0l1 1-1-1m-66 1l1 1-1-1m67 0l1 1-1-1m-68 1l1 1-1-1m69 0l1 1-1-1m-70 1l1 1-1-1m71 0l1 1-1-1m-72 1l1 1-1-1m73 0l1 1-1-1m-74 1l1 1-1-1m75 0l1 1-1-1m-76 1l1 1-1-1m77 0l1 1-1-1m-78 1l1 1-1-1m79 0l1 1-1-1m-80 1l1 1-1-1m81 0l1 1-1-1m-82 1l1 1-1-1m83 0l1 1-1-1m-84 1l1 1-1-1m85 0l1 1-1-1m-86 1l1 1-1-1m87 0l1 1-1-1m-88 1l1 1-1-1m89 0l1 1-1-1m-90 1l1 1-1-1m91 0l1 1-1-1m-92 1l1 1-1-1m93 0l1 1-1-1m-94 1l1 1-1-1m95 0l1 1-1-1m-96 1l1 1-1-1m97 0l1 1-1-1m-98 1l1 1-1-1m99 0l1 1-1-1m-100 1l1 1-1-1m101 0l1 1-1-1m-102 1l1 1-1-1m103 0l1 1-1-1m-104 1l1 1-1-1m105 0l1 1-1-1m-106 1l1 1-1-1m107 0l1 1-1-1m-108 1l1 1-1-1m109 0l1 1-1-1m-110 1l1 1-1-1m111 0l1 1-1-1z" fill="#5A0" fill-rule="nonzero"></path>
    </g>
  </symbol>
</svg>